<?xml version="1.0" encoding="utf-8"?>
<!-- Generator: Adobe Illustrator 16.0.0, SVG Export Plug-In . SVG Version: 6.00 Build 0)  -->
<!DOCTYPE svg PUBLIC "-//W3C//DTD SVG 1.1//EN" "http://www.w3.org/Graphics/SVG/1.1/DTD/svg11.dtd">
<svg version="1.1" id="Layer_1" xmlns="http://www.w3.org/2000/svg" xmlns:xlink="http://www.w3.org/1999/xlink" x="0px" y="0px"
	 width="2196.22px" height="2196.22px" viewBox="151.21 151.209 2196.22 2196.22"
	 enable-background="new 151.21 151.209 2196.22 2196.22" xml:space="preserve">
<path fill="none" d="M0,0.002h2500v2499.996H0V0.002z"/>
<path fill="#2062AF" d="M1882.25,2169.831l-632.26,170.243l-632.27-170.243l-145.9-1580.649h1556.35L1882.25,2169.831z"/>
<path fill="#3C9CD7" d="M1249.986,717.212v1487.08l1.43,0.39l511.661-137.777l118.102-1349.692H1249.986L1249.986,717.212z"/>
<path d="M891.156,356.952v-94.08h137.263V159.926H788.21v290.966h240.208v-93.94H891.156z M1275.339,262.872h95.965V159.926
	h-240.231v102.946c32.14,32.14,48.901,47.522,95.384,94.006c-27.173,0-95.384,0.098-95.384,0.093v93.922h240.231v-93.94
	L1275.339,262.872L1275.339,262.872z M1615.824,262.872h95.96V159.926h-240.241v102.946c32.141,32.14,48.911,47.522,95.395,94.006
	c-27.164,0-95.395,0.098-95.395,0.093v93.922h240.246v-93.94L1615.824,262.872L1615.824,262.872z"/>
<path fill="#FFFFFF" d="M1249.424,1112.438l-452.529,188.467l15.007,186.596l437.522-187.069l465.41-198.984l19.297-190.88
	L1249.424,1112.438L1249.424,1112.438z"/>
<linearGradient id="SVGID_1_" gradientUnits="userSpaceOnUse" x1="-43.967" y1="-111.2798" x2="-43.967" y2="-192.0806" gradientTransform="matrix(4.6418 0 0 4.6418 1227.24 2004.0352)">
	<stop  offset="0.387" style="stop-color:#D1D3D4;stop-opacity:0"/>
	<stop  offset="1" style="stop-color:#D1D3D4"/>
</linearGradient>
<path fill="url(#SVGID_1_)" d="M796.89,1300.904l15.007,186.596l437.522-187.069v-187.993L796.89,1300.904z"/>
<linearGradient id="SVGID_2_" gradientUnits="userSpaceOnUse" x1="56.9905" y1="-151.5806" x2="56.9905" y2="-235.5698" gradientTransform="matrix(4.6418 0 0 4.6418 1227.24 2004.0352)">
	<stop  offset="0.387" style="stop-color:#D1D3D4;stop-opacity:0"/>
	<stop  offset="1" style="stop-color:#D1D3D4"/>
</linearGradient>
<path fill="url(#SVGID_2_)" d="M1734.13,910.57l-484.706,201.867v187.993l465.41-198.984L1734.13,910.57z"/>
<linearGradient id="SVGID_3_" gradientUnits="userSpaceOnUse" x1="-92.5623" y1="-75.2412" x2="101.5032" y2="-75.2412" gradientTransform="matrix(4.6418 0 0 4.6418 1227.24 2004.0352)">
	<stop  offset="0" style="stop-color:#E8E7E5"/>
	<stop  offset="1" style="stop-color:#FFFFFF"/>
</linearGradient>
<path fill="url(#SVGID_3_)" d="M797.586,1300.904l15.012,186.596l671.32,2.14l-15.016,248.792l-220.903,62.19l-212.354-53.617
	l-12.867-154.424H825.465l25.739,298.12l398.939,117.957l396.776-115.817l51.478-591.937H797.586z"/>
<path opacity="0.05" enable-background="new    " d="M1249.424,1300.904H796.895l15.007,186.596l437.522,1.397V1300.904
	L1249.424,1300.904z M1249.424,1800.028l-2.145,0.599l-212.325-53.617l-12.867-154.424H824.779l25.733,298.12l398.912,117.957
	V1800.028z"/>
<linearGradient id="SVGID_4_" gradientUnits="userSpaceOnUse" x1="-101.491" y1="-215.0083" x2="109.2009" y2="-215.0083" gradientTransform="matrix(4.6418 0 0 4.6418 1227.24 2004.0352)">
	<stop  offset="0" style="stop-color:#E8E7E5"/>
	<stop  offset="1" style="stop-color:#FFFFFF"/>
</linearGradient>
<path fill="url(#SVGID_4_)" d="M756.14,910.57h977.99l-19.296,190.881H779.73L756.14,910.57L756.14,910.57z"/>
<path opacity="0.05" enable-background="new    " d="M1249.424,910.57H756.14l23.59,190.881h469.694V910.57L1249.424,910.57z"/>
</svg>
