<?xml version="1.0" encoding="utf-8"?>
<!-- Generator: Adobe Illustrator 16.0.0, SVG Export Plug-In . SVG Version: 6.00 Build 0)  -->
<!DOCTYPE svg PUBLIC "-//W3C//DTD SVG 1.1//EN" "http://www.w3.org/Graphics/SVG/1.1/DTD/svg11.dtd">
<svg version="1.1" xmlns="http://www.w3.org/2000/svg" xmlns:xlink="http://www.w3.org/1999/xlink" x="0px" y="0px" width="783px"
	 height="781px" viewBox="0 0 783 781" enable-background="new 0 0 783 781" xml:space="preserve">
<g id="Layer_1" display="none">
	<g display="inline">
		<path fill="#FEFEFE" d="M393.19,3.003C179.04,2.912,4.236,176.898,4.003,390.37C3.767,606.509,177.232,780.898,392.74,781.181
			c215.328,0.281,389.404-174.095,389.441-390.112C782.218,177.276,607.62,3.094,393.19,3.003z"/>
		<path fill-rule="evenodd" clip-rule="evenodd" fill="#383838" d="M393.19,3.003c214.43,0.091,389.027,174.273,388.99,388.065
			c-0.037,216.018-174.113,390.394-389.441,390.112C177.232,780.898,3.767,606.509,4.003,390.37
			C4.236,176.898,179.04,2.912,393.19,3.003z"/>
	</g>
</g>
<g id="Layer_3">
	<linearGradient id="SVGID_1_" gradientUnits="userSpaceOnUse" x1="198.2173" y1="727.0078" x2="586.7821" y2="53.9938">
		<stop  offset="0" style="stop-color:#4A4A4A"/>
		<stop  offset="1" style="stop-color:#0F0F0F"/>
	</linearGradient>
	<circle fill="url(#SVGID_1_)" cx="392.5" cy="390.5" r="388.5"/>
</g>
<g id="Layer_2">
	<path fill-rule="evenodd" clip-rule="evenodd" fill="#383838" d="M612.999,353.928c0.586-15.568-7.678-26.97-22.034-30.95
		c-9.161-2.54-18.527-2.979-27.68-0.819c-5.846,1.379-11.777,3.674-16.829,6.883c-12.277,7.801-11.011,30.591,0.259,37.741
		c7.947,5.042,16.635,7.245,25.556,9.361c8.688,2.061,17.714,3.701,25.723,7.405c13.798,6.38,14.224,23.502,1.484,31.841
		c-22.74,14.887-52.192,3.149-57.784-23.073c-2.428,0-4.858,0-7.516,0c0.204,9.21,3.057,17.005,9.043,23.825
		c13.811,15.737,45.646,14.148,59.343,6.431c10.262-5.782,14.658-14.47,13.604-26.143c-0.959-10.624-6.856-17.383-16.397-21.261
		c-3.216-1.307-6.61-2.215-9.979-3.095c-10.924-2.852-22.024-5.13-32.758-8.567c-6.923-2.216-11.254-7.594-11.327-15.432
		c-0.071-7.753,4.085-12.899,10.721-16.016c9.881-4.642,20.274-5.012,30.695-2.203c11.709,3.156,17.131,9.99,18.161,22.107
		c0.053,0.616,0.197,1.225,0.32,1.963C608.12,353.928,610.393,353.928,612.999,353.928z"/>
	<path fill-rule="evenodd" clip-rule="evenodd" fill="#383838" d="M630.223,392.238c0.443,13.427,5.652,23.955,16.251,29.591
		c17.881,9.506,36.243,8.94,53.963-0.553c9.729-5.214,12.738-14.422,11.727-25.099c-0.917-9.695-5.934-16.662-14.827-20.189
		c-6.441-2.555-13.339-3.967-20.047-5.841c-8.464-2.365-17.126-4.177-25.354-7.182c-6.32-2.308-10.05-7.506-10.209-14.644
		c-0.151-6.831,2.883-12.203,8.826-15.061c4.838-2.326,10.252-4.132,15.563-4.673c17.612-1.795,34.897,4.234,35.32,24.626
		c0.005,0.242,0.405,0.476,0.547,0.632c2.353,0,4.622,0,6.862,0c1.261-14.396-7.254-26.73-21.132-30.712
		c-9.458-2.713-19.161-3.17-28.662-0.95c-5.692,1.33-11.445,3.603-16.39,6.699c-12.423,7.777-11.384,30.756,0.281,38.052
		c7.97,4.985,16.68,7.125,25.598,9.257c8.836,2.111,18.007,3.9,26.103,7.773c12.985,6.211,13.666,23.299,1.341,30.796
		c-5.449,3.314-12.327,5.015-18.76,5.816c-12.004,1.499-23.665-0.575-31.683-10.624c-3.958-4.961-6.042-11.419-9.234-17.714
		C635.201,392.238,632.909,392.238,630.223,392.238z"/>
	<path fill-rule="evenodd" clip-rule="evenodd" fill="#383838" d="M169.208,425.303c7.361,2.977,11.21-0.655,14.716-6.021
		c3.907-5.98,8.449-11.548,12.73-17.283c5.857-7.848,11.729-15.685,17.816-23.825c10.291,14.112,20.627,27.591,30.124,41.638
		c3.986,5.897,8.446,7.483,15.259,5.756c-13.422-17.921-26.735-35.697-40.126-53.577c12.319-16.224,24.438-32.184,36.735-48.377
		c-9.344-1.305-9.329-1.294-14.157,5.143c-9.18,12.237-18.379,24.461-27.83,37.036c-9.202-12.268-18.629-23.933-26.967-36.332
		c-4.143-6.161-8.739-7.497-15.693-5.864c12.497,16.275,24.794,32.293,37.162,48.401
		C195.542,390.003,182.344,407.694,169.208,425.303z"/>
	<path fill-rule="evenodd" clip-rule="evenodd" fill="#383838" d="M389.097,425.925c0-1.794,0-3.413,0-5.034
		c0-17.336-0.112-34.673,0.031-52.008c0.152-18.528,11.977-34.028,28.477-37.414c3.688-0.757,7.521-0.81,11.501-1.208
		c0-1.208,0.043-2.367-0.012-3.521c-0.06-1.254-0.21-2.503-0.337-3.928c-17.036,0.509-30.874,5.917-39.73,22.723
		c0-8.281,0-15.294,0-22.13c-2.963,0-5.367,0-7.604,0c0,34.419,0,68.502,0,102.52C384.053,425.925,386.344,425.925,389.097,425.925z
		"/>
	<path fill-rule="evenodd" clip-rule="evenodd" fill="#F9F9F9" d="M82.363,376.111c0.092,24.659,11.641,41.374,31.111,44.211
		c18.822,2.743,35.744-3.001,43.383-29.062c2.612,0,4.914,0,7.225,0c-1.248,20.112-18.791,35.832-39.82,36.948
		c-31.127,1.652-48.878-18.093-50.037-50.349c-0.442-12.316,1.806-24.22,7.978-35.092c9.129-16.081,26.817-24.29,45.93-21.463
		c18.043,2.669,31.406,15.664,35.732,35.045c0.938,4.2,1.25,8.552,1.68,12.85c0.211,2.112,0.037,4.263,0.037,6.913 M157.218,368.907
		c-0.699-25.032-15.826-41.074-38-40.651c-20.199,0.385-36.638,18.789-36.152,40.651"/>
	<path fill-rule="evenodd" clip-rule="evenodd" fill="#F7F7F7" d="M612.999,353.928c-2.606,0-4.879,0-7.396,0
		c-0.123-0.739-0.268-1.347-0.32-1.963c-1.03-12.117-6.452-18.951-18.161-22.107c-10.421-2.809-20.814-2.439-30.695,2.203
		c-6.636,3.116-10.792,8.263-10.721,16.016c0.073,7.838,4.404,13.216,11.327,15.432c10.733,3.438,21.834,5.715,32.758,8.567
		c3.369,0.879,6.764,1.788,9.979,3.095c9.541,3.877,15.438,10.637,16.397,21.261c1.054,11.673-3.343,20.36-13.604,26.143
		c-13.696,7.718-45.532,9.307-59.343-6.431c-5.986-6.82-8.839-14.615-9.043-23.825c2.657,0,5.088,0,7.516,0
		c5.592,26.223,35.044,37.96,57.784,23.073c12.739-8.339,12.313-25.461-1.484-31.841c-8.009-3.704-17.034-5.344-25.723-7.405
		c-8.921-2.117-17.608-4.319-25.556-9.361c-11.27-7.15-12.536-29.94-0.259-37.741c5.052-3.209,10.983-5.504,16.829-6.883
		c9.152-2.16,18.519-1.72,27.68,0.819C605.321,326.958,613.585,338.359,612.999,353.928z"/>
	<path fill-rule="evenodd" clip-rule="evenodd" fill="#F7F7F7" d="M630.223,392.238c2.687,0,4.979,0,6.085,0
		c3.192,6.295,5.276,12.753,9.234,17.714c8.018,10.049,19.679,12.123,31.683,10.624c6.433-0.802,13.311-2.502,18.76-5.816
		c12.325-7.497,11.645-24.584-1.341-30.796c-8.096-3.873-17.267-5.663-26.103-7.773c-8.918-2.132-17.628-4.271-25.598-9.257
		c-11.665-7.296-12.704-30.274-0.281-38.052c4.944-3.096,10.697-5.369,16.39-6.699c9.501-2.22,19.204-1.763,28.662,0.95
		c13.878,3.982,22.393,16.316,21.132,30.712c-2.24,0-4.51,0-6.862,0c-0.142-0.156-0.542-0.39-0.547-0.632
		c-0.423-20.392-17.708-26.422-35.32-24.626c-5.312,0.541-10.726,2.347-15.563,4.673c-5.943,2.858-8.978,8.23-8.826,15.061
		c0.159,7.138,3.889,12.336,10.209,14.644c8.228,3.005,16.89,4.817,25.354,7.182c6.708,1.875,13.605,3.286,20.047,5.841
		c8.894,3.527,13.91,10.495,14.827,20.189c1.012,10.677-1.997,19.885-11.727,25.099c-17.72,9.493-36.082,10.059-53.963,0.553
		C635.875,416.193,630.666,405.665,630.223,392.238z"/>
	<path fill-rule="evenodd" clip-rule="evenodd" fill="#F8F8F8" d="M169.208,425.303c13.136-17.608,26.334-35.3,39.767-53.306
		c-12.367-16.108-24.665-32.125-37.162-48.401c6.954-1.633,11.55-0.297,15.693,5.864c8.338,12.398,17.765,24.064,26.967,36.332
		c9.451-12.574,18.65-24.798,27.83-37.036c4.828-6.437,4.813-6.448,14.157-5.143c-12.296,16.193-24.416,32.153-36.735,48.377
		c13.392,17.88,26.705,35.656,40.126,53.577c-6.812,1.728-11.272,0.142-15.259-5.756c-9.496-14.047-19.833-27.526-30.124-41.638
		c-6.088,8.14-11.959,15.977-17.816,23.825c-4.281,5.735-8.823,11.303-12.73,17.283
		C180.418,424.647,176.569,428.279,169.208,425.303z"/>
	<path fill-rule="evenodd" clip-rule="evenodd" fill="#FBFBFB" d="M389.097,425.925c-2.753,0-5.043,0-7.674,0
		c0-34.018,0-68.101,0-102.52c2.237,0,4.641,0,7.604,0c0,6.836,0,13.849,0,22.13c8.856-16.806,22.694-22.214,39.73-22.723
		c0.127,1.424,0.277,2.673,0.337,3.928c0.055,1.154,0.012,2.313,0.012,3.521c-3.979,0.398-7.812,0.451-11.501,1.208
		c-16.5,3.386-28.324,18.886-28.477,37.414c-0.144,17.335-0.031,34.672-0.031,52.008
		C389.097,422.512,389.097,424.131,389.097,425.925z"/>
	<g>
		<path fill="none" d="M313.883,328.277c-14.417,1.1-26.071,10.211-30.516,24.861c-2.101,6.927-2.826,14.272-3.814,19.515
			l1.594,16.002c2.853,18.807,13.38,29.645,30.93,32.065c17.534,2.42,32.706-5.793,39.361-22.267
			c6.804-16.841,6.361-33.926-1.478-50.361C343.196,333.912,330.036,327.044,313.883,328.277z"/>
		<path fill="#F8F8F8" d="M355.944,342.469c-8.599-15.934-23.118-22.289-40.936-21.395c-15.503,0.779-26.646,8.302-33.668,22.072
			c-0.236,0.463-0.587,0.867-1.612,2.356c0-8.235,0-15.176,0-22.271c-2.653,0-4.937,0-7.549,0c0,46.825,0,93.219,0,139.544
			c2.703,0,5.095,0,7.745,0c0-9.486,0-18.629,0-27.771c0-9.124,0-18.25,0-27.909c2.695,3.759,4.498,7.023,6.995,9.622
			c10.896,11.339,24.852,12.677,39.309,10.871c14.366-1.793,25.577-9.275,31.398-22.576
			C366.767,384.121,366.906,362.781,355.944,342.469z M351.438,398.454c-6.656,16.474-21.827,24.687-39.361,22.267
			c-17.55-2.421-28.077-13.259-30.93-32.065l-1.594-16.002c0.989-5.243,1.713-12.588,3.814-19.515
			c4.444-14.65,16.099-23.761,30.516-24.861c16.153-1.233,29.313,5.635,36.078,19.816
			C357.799,364.528,358.243,381.613,351.438,398.454z"/>
	</g>
	<path fill-rule="evenodd" clip-rule="evenodd" fill="#F9F9F9" d="M437.39,376.132c0.665,26.081,12.406,42.288,32.847,44.485
		c19.065,2.052,34.728-4.831,41.486-29.199c2.32,0,4.741,0,7.71,0c-1.547,10.104-5.554,18.946-13.031,25.968
		c-21.916,20.579-61.188,11.938-72.418-15.875c-3.867-9.577-5.449-19.668-4.517-29.844c0.676-7.371,2.061-14.924,4.647-21.826
		c7.683-20.495,24.605-30.413,47.319-28.697c18.286,1.381,33.256,15.283,37.513,35.422c1.318,6.237,1.478,12.719,2.219,19.566
		C492.596,376.132,465.146,376.132,437.39,376.132z M512.312,368.921c-0.825-25.381-16.209-41.419-38.586-40.665
		c-19.936,0.672-36.427,19.483-35.506,40.665C462.801,368.921,487.389,368.921,512.312,368.921z"/>
</g>
</svg>
