<?xml version="1.0" encoding="utf-8"?>
<!-- Generator: Adobe Illustrator 16.0.0, SVG Export Plug-In . SVG Version: 6.00 Build 0)  -->
<!DOCTYPE svg PUBLIC "-//W3C//DTD SVG 1.1//EN" "http://www.w3.org/Graphics/SVG/1.1/DTD/svg11.dtd">
<svg version="1.1" xmlns="http://www.w3.org/2000/svg" xmlns:xlink="http://www.w3.org/1999/xlink" x="0px" y="0px" width="1470px"
	 height="1266px" viewBox="0 0 1470 1266" enable-background="new 0 0 1470 1266" xml:space="preserve">
<g id="Layer_1">
	<path fill-rule="evenodd" clip-rule="evenodd" fill="#81C365" d="M474,36c94-24,189.428-28.052,246.634-23.774
		c31.524,0,54.564,0.053,77.604-0.012c31.602-0.088,62.351,5.588,93.441,10.753c24.098,4.001,48.301,7.392,71.946,13.485
		c44.563,11.476,87.106,27.183,126.142,52.938c21.312,14.062,35.62,32.189,42.601,54.7c9.79,31.578,15.907,64.148,19.99,97.372
		c4.267,34.733,5.071,69.226,4.695,103.9c-0.658,60.112-12.163,118.69-25.667,177.045c-13.396,57.95-39.234,110.822-71.641,159.282
		c-40.192,60.095-87.564,114.63-144.609,160.781c-50.734,41.044-104.817,75.865-162.155,106.45
		c-18.545,9.89-34.163,8.55-52.773-0.206c-56.271-26.46-109.194-58.837-156.279-98.623
		c-84.283-71.224-156.203-153.248-199.368-256.942c-16.104-38.682-26.895-78.862-35.909-119.789
		c-16.665-75.695-13.341-152.313-10.547-228.572c1.445-39.54,12.075-78.593,27.973-115.794C334.318,109.715,381.838,73.537,400,64
		L474,36z"/>
	<path fill-rule="evenodd" clip-rule="evenodd" fill="#41301F" d="M460,108c31.578-6.781,133.455-20.009,165.277-24.786
		c49.77-7.468,99.398-5.506,148.869-4.102c71.294,2.027,142.177,10.583,209.893,35.368c21.801,7.979,43.729,15.096,63.45,28.898
		c11.546,8.079,18.181,15.9,21.576,29.157c7.745,30.268,16.118,60.2,16.518,91.89c0.212,16.553,6.023,33.223,4.966,49.559
		c-4.313,66.258-8.814,132.07-27.93,196.924c-17.445,59.166-43.329,112.332-80.29,160.81c-14.919,19.562-29.397,39.67-46.18,57.551
		c-60.535,64.501-129.872,117.421-211.42,155.263c-52.32-22.77-98.389-53.278-139.492-89.134
		c-69.549-60.677-133.069-127.775-171.757-213.454c-17.91-39.663-29.944-81.583-38.794-124.59
		c-12.507-60.775-13.297-121.98-10.991-183.297c1.39-36.955,9.687-73.31,19.447-109.019c2.82-10.318,28.46-35.051,38.857-41.038
		L460,108z"/>
</g>
<g id="Layer_2">
	<g>
		<path fill="#8E714E" d="M1346.105,969.654c-1.555,0.311-3.117,3.743-3.117,5.612c-0.311,12.48-0.621,45.55-0.621,68.009
			c0,0.627,0.934,1.874,1.87,1.874c4.678,0.311,15.908,0.622,25.58,0.622c13.413,0,21.213-1.869,25.583-3.739
			c11.228-5.619,16.531-17.785,16.531-31.203c0-30.255-21.213-41.8-52.724-41.8C1357.025,968.719,1350.791,968.719,1346.105,969.654
			L1346.105,969.654z M1426.597,1109.102c0-30.885-22.775-48.045-63.953-48.045c-1.873,0-14.976-0.311-18.096,0.312
			c-0.938,0.315-2.181,0.94-2.181,1.877c0,22.145-0.314,57.4,0.621,71.126c0.621,5.926,4.994,14.351,10.298,16.845
			c5.611,3.121,18.403,3.743,27.14,3.743C1405.068,1154.959,1426.597,1141.233,1426.597,1109.102L1426.597,1109.102z
			 M1282.471,952.499c3.116,0,12.475,0.933,36.496,0.933c22.774,0,40.868-0.622,63.017-0.622c27.14,0,64.576,9.668,64.576,50.225
			c0,19.965-14.041,35.878-32.444,43.677c-0.933,0.311-0.933,0.933,0,1.243c26.203,6.556,49.292,22.775,49.292,53.345
			c0,29.952-18.719,48.981-45.859,60.836c-16.536,7.174-37.122,9.669-58.024,9.669c-15.914,0-58.65-1.87-82.355-1.244
			c-2.497-0.939,2.182-12.17,4.362-14.04c5.619-0.312,9.983-0.625,15.912-2.497c8.425-2.181,9.357-4.68,10.604-17.468
			c0.626-10.918,0.626-49.606,0.626-77.055c0-37.748,0.314-63.328,0-75.807c-0.311-9.667-3.742-12.791-10.605-14.664
			c-5.307-0.934-14.038-2.184-21.216-3.117C1275.29,964.35,1280.595,953.742,1282.471,952.499L1282.471,952.499z M1102.464,1146.537
			c7.492,5.924,22.153,8.418,35.256,8.418c16.845,0,33.69-3.113,49.913-17.781c16.535-14.969,28.076-38.055,28.076-74.865
			c0-35.256-13.414-63.956-40.868-80.798c-15.599-9.676-35.563-13.727-58.648-13.727c-6.862,0-13.413,0.312-17.468,2.181
			c-0.939,0.627-3.119,3.433-3.119,4.99c-0.626,6.241-0.626,54.281-0.626,82.36c0,29.012,0,69.567,0.626,74.246
			c0,4.683,2.18,11.856,6.862,14.976H1102.464z M1031.648,952.495c5.929,0,28.7,0.937,39.619,0.937
			c19.658,0,33.694-0.933,70.817-0.933c31.194,0,57.399,8.42,76.119,24.329c22.771,19.654,34.63,46.797,34.63,79.861
			c0,47.107-21.528,74.251-43.055,89.848c-21.521,15.909-49.6,25.267-89.53,25.267c-21.213,0-57.714-0.622-87.975-0.937h-0.312
			c-1.559-2.806,2.496-13.725,4.991-14.036c8.112-0.937,10.297-1.25,14.354-2.805c6.547-2.5,7.797-5.931,8.735-17.472
			c0.932-21.526,0.621-47.419,0.621-76.744c0-20.898,0.311-61.77-0.313-74.873c-0.934-10.915-5.612-13.725-14.974-15.597
			c-4.678-0.934-10.918-2.185-19.65-3.117c-1.25-2.187,4.364-11.856,5.924-13.725L1031.648,952.495z"/>
		<path fill="#442D22" d="M654.179,1158.7c-7.799-0.936-13.415-2.181-20.277-5.3c-0.936-0.626-2.498-3.742-2.498-4.993
			c-0.622-10.919-0.622-42.114-0.622-63.014c0-16.848-2.806-31.509-9.983-41.803c-8.425-11.859-20.588-18.719-36.188-18.719
			c-13.725,0-32.132,9.357-47.419,22.461c-0.312,0.311-2.806,2.497-2.495-0.938c0-3.431,0.625-10.294,0.937-14.975
			c0.313-4.368-2.184-6.549-2.184-6.549c-9.984,4.99-38.058,11.541-48.355,12.475c-7.485,1.565-9.358,8.737-1.556,11.233h0.311
			c8.418,2.495,14.036,5.305,18.4,8.113c3.12,2.494,2.809,5.926,2.809,8.735c0.311,23.394,0.311,59.271-0.622,78.925
			c-0.311,7.799-2.495,10.605-8.113,11.854l0.625-0.312c-4.368,0.937-7.799,1.87-13.103,2.495c-1.873,1.873-1.873,11.856,0,14.039
			c3.432,0,21.524-0.937,36.503-0.937c20.587,0,31.195,0.937,36.496,0.937c2.185-2.495,2.81-11.854,1.562-14.039
			c-5.929-0.312-10.297-0.933-14.351-2.183c-5.614-1.252-7.177-4.055-7.491-10.605c-0.619-16.538-0.619-51.477-0.619-75.184
			c0-6.551,1.87-9.672,3.739-11.544c7.177-6.237,18.721-10.605,29.015-10.605c9.982,0,16.531,3.12,21.524,7.177
			c6.862,5.611,9.046,13.725,9.983,19.651c1.558,13.415,0.936,39.932,0.936,63.017c0,12.479-0.936,15.598-5.612,17.156
			c-2.186,0.938-7.802,2.188-14.354,2.806c-2.184,2.188-1.558,11.858,0,14.043c9.046,0,19.655-0.937,35.252-0.937
			c19.341,0,31.821,0.937,36.815,0.937C654.8,1170.246,655.426,1161.199,654.179,1158.7L654.179,1158.7z M740.591,1039.537
			c-16.531,0-26.828,12.789-26.828,32.751c0,20.279,9.046,43.676,34.627,43.676c4.368,0,12.481-1.873,16.22-6.24
			c5.929-5.611,9.985-16.845,9.985-28.701c0-25.892-12.792-41.488-34.005-41.488L740.591,1039.537z M738.408,1177.419
			c-6.237,0-10.608,1.873-13.413,3.435c-13.104,8.418-19.03,16.53-19.03,26.206c0,9.043,3.432,16.217,10.92,22.456
			c9.046,7.8,21.523,11.545,37.433,11.545c31.82,0,45.86-17.159,45.86-34.001c0-11.859-5.93-19.658-18.093-24.022
			C773.35,1179.292,757.44,1177.419,738.408,1177.419L738.408,1177.419z M740.591,1258.531c-19.028,0-32.757-4.057-44.609-13.104
			c-11.544-8.734-16.533-21.838-16.533-30.884c0-2.495,0.624-9.361,6.24-15.597c3.428-3.747,10.919-10.92,28.701-23.088
			c0.621-0.31,0.933-0.621,0.933-1.25c0-0.622-0.626-1.247-1.248-1.555c-14.661-5.615-19.028-14.665-20.279-19.654v-0.626
			c-0.309-1.873-0.933-3.741,1.875-5.614c2.184-1.559,5.305-3.432,8.733-5.612c5.304-3.123,10.919-6.555,14.349-9.363
			c0.626-0.623,0.626-1.244,0.626-1.87s-0.626-1.251-1.251-1.559c-21.832-7.177-32.75-23.4-32.75-47.733
			c0-15.908,7.173-30.259,19.962-39.305c8.735-6.862,30.574-15.288,44.924-15.288h0.936c14.662,0.312,22.771,3.433,34.313,7.489
			c6.24,2.183,12.17,3.115,20.283,3.115c12.163,0,17.467-3.741,21.831-8.104c0.314,0.622,0.94,2.183,1.251,6.237
			c0.311,4.056-0.937,9.982-4.057,14.35c-2.495,3.432-8.109,5.929-13.725,5.929h-1.562c-5.615-0.626-8.113-1.25-8.113-1.25
			l-1.245,0.624c-0.311,0.626,0,1.248,0.312,2.185l0.314,0.626c0.622,2.805,1.869,11.228,1.869,13.413
			c0,25.581-10.294,36.809-21.213,45.232c-10.608,7.799-22.771,12.788-36.499,14.039c-0.312,0-1.555,0-4.368,0.312
			c-1.558,0-3.742,0.314-4.057,0.314h-0.312c-2.495,0.621-8.731,3.742-8.731,9.043c0,4.678,2.806,10.297,16.22,11.232
			c2.806,0.311,5.612,0.311,8.735,0.626c17.782,1.243,39.93,2.806,50.224,6.236c14.351,5.301,23.396,18.093,23.396,33.38
			c0,23.09-16.53,44.614-43.983,58.023C768.671,1255.411,755.253,1258.531,740.591,1258.531L740.591,1258.531z M918.407,1041.095
			c-6.547,0-12.478,1.555-16.845,4.677c-12.163,7.486-18.403,22.463-18.403,44.298c0,40.871,20.588,69.572,49.914,69.572
			c8.735,0,15.597-2.499,21.523-7.489c9.047-7.491,13.729-22.464,13.729-43.365c0-40.553-20.28-67.695-49.913-67.695
			L918.407,1041.095z M924.026,1174.613c-53.035,0-72.062-38.994-72.062-75.494c0-25.58,10.294-45.234,30.881-59.274
			c14.665-9.046,32.135-14.036,47.733-14.036c40.554,0,68.942,29.011,68.942,70.815c0,28.387-11.23,50.846-32.758,64.575
			c-10.293,6.862-28.075,13.414-42.74,13.414H924.026L924.026,1174.613z M368.111,1041.092c-6.552,0-12.478,1.558-16.849,4.68
			c-12.163,7.486-18.403,22.463-18.403,44.298c0,40.871,20.587,69.572,49.914,69.572c8.735,0,15.598-2.499,21.527-7.489
			c9.042-7.491,13.725-22.464,13.725-43.365C418.025,1068.234,398.059,1041.092,368.111,1041.092L368.111,1041.092z
			 M373.726,1174.613c-53.034,0-72.063-38.994-72.063-75.494c0-25.58,10.293-45.234,30.881-59.274
			c14.665-9.046,32.135-14.036,47.733-14.036c40.556,0,68.943,29.011,68.943,70.815c0,28.387-11.23,50.846-32.757,64.575
			C406.48,1168.062,388.699,1174.613,373.726,1174.613L373.726,1174.613z M17.154,1171.492c-0.625-0.933-1.251-3.741-0.936-7.173
			c0-2.499,0.625-4.057,0.936-4.678c6.552-0.941,9.982-1.877,13.725-2.811c6.241-1.562,8.735-4.989,9.046-12.788
			c0.94-18.718,0.94-54.285,0.625-78.929v-0.625c0-2.806,0-6.241-3.431-8.735c-4.993-3.117-10.92-5.924-18.718-8.114
			c-2.806-0.929-4.679-2.49-4.368-4.36c0-1.873,1.874-4.057,5.93-4.682c10.294-0.938,37.118-7.485,47.726-12.168
			c0.625,0.623,1.562,2.5,1.562,4.994l-0.311,3.428c-0.314,3.435-0.625,7.491-0.625,11.544c0,1.248,1.251,2.185,2.495,2.185
			c0.625,0,1.251-0.312,1.873-0.626c19.965-15.598,38.058-21.212,47.416-21.212c15.29,0,27.145,7.177,36.192,22.149
			c0.622,0.938,1.247,1.25,2.184,1.25c0.622,0,1.555-0.312,1.87-0.936c18.407-14.039,36.814-22.464,48.977-22.464
			c29.012,0,46.171,21.526,46.171,58.026c0,10.294,0,23.707-0.311,35.877c0,10.916-0.311,20.899-0.311,28.076
			c0,1.555,2.181,6.548,5.612,7.485c4.368,2.183,10.297,3.119,18.096,4.367h0.311c0.625,2.184-0.622,10.293-1.87,11.854
			c-1.872,0-4.682,0-7.799-0.311c-7.897-0.412-15.803-0.621-23.71-0.626c-19.34,0-29.323,0.312-38.998,0.937
			c-0.619-2.495-0.933-9.982,0-11.854c5.618-0.933,8.424-1.874,11.858-2.806c6.241-1.874,7.799-4.684,8.113-12.792
			c0-5.927,1.245-56.465-0.628-68.633c-1.87-12.477-11.23-27.138-31.821-27.138c-7.799,0-19.962,3.12-31.818,12.162
			c-0.622,0.625-1.251,2.185-1.251,3.121v0.313c1.251,6.548,1.251,14.039,1.251,25.58v20.277c0,14.039-0.314,27.143,0,37.121
			c0,6.866,4.057,8.426,7.488,9.676c1.873,0.308,3.117,0.621,4.679,0.933c2.806,0.626,5.614,1.252,9.983,2.185
			c0.625,1.25,0.625,5.303-0.311,8.734c-0.315,1.873-0.94,2.807-1.251,3.12c-10.604-0.311-21.523-0.625-37.433-0.625
			c-4.678,0-12.792,0.314-19.654,0.314c-5.619,0-10.919,0.311-14.036,0.311c-0.314-0.625-0.94-2.806-0.94-6.24
			c0-2.806,0.625-4.989,1.251-5.614c1.558-0.312,2.806-0.623,4.368-0.623c3.738-0.625,6.862-1.251,9.979-1.873
			c5.307-1.559,7.177-4.367,7.487-11.229c0.937-15.598,1.873-60.207-0.311-71.441c-3.743-18.092-14.037-27.139-30.574-27.139
			c-9.668,0-21.838,4.68-31.817,12.17c-1.562,1.245-2.81,4.361-2.81,7.17v18.407c0,22.46,0,50.539,0.311,62.706
			c0.314,3.739,1.559,8.109,8.735,9.668c1.562,0.311,4.057,0.937,7.177,1.252l5.612,0.933c0.628,1.872,0.314,9.359-0.934,11.854
			c-3.12,0-6.863-0.311-11.233-0.311c-6.548-0.314-14.972-0.626-24.33-0.626c-10.919,0-18.718,0.312-24.958,0.626
			C24.329,1171.492,20.897,1171.492,17.154,1171.492L17.154,1171.492z"/>
		<path fill="#FFFFFF" d="M736.157,814.962l-18.472-6.313c0,0,2.256-94.17-31.543-100.928
			c-22.524-26.138,3.613-1108.462,84.717-3.608c0,0-27.939,13.965-32.896,37.852C732.554,765.396,736.157,814.962,736.157,814.962
			L736.157,814.962z"/>
		<path fill="#A6A385" d="M736.157,814.962l-18.472-6.313c0,0,2.256-94.17-31.543-100.928
			c-22.524-26.138,3.613-1108.462,84.717-3.608c0,0-27.939,13.965-32.896,37.852C732.554,765.396,736.157,814.962,736.157,814.962
			L736.157,814.962z"/>
		<path fill="#FFFFFF" d="M746.074,723.941c0,0,161.768-106.343,123.911-327.588c-36.494-160.854-122.559-213.574-132.021-233.853
			c-10.361-14.419-20.278-39.648-20.278-39.648l6.763,447.432c0,0.454-13.97,136.982,21.631,153.662"/>
		<path fill="#499D4A" d="M746.074,723.941c0,0,161.768-106.343,123.911-327.588c-36.494-160.854-122.559-213.574-132.021-233.853
			c-10.361-14.419-20.278-39.648-20.278-39.648l6.763,447.432c0,0.454-13.97,136.982,21.631,153.662"/>
		<path fill="#FFFFFF" d="M708.228,729.796c0,0-151.855-103.638-142.842-286.123c8.56-182.49,115.801-272.158,136.528-288.379
			c13.521-14.419,13.97-19.829,14.873-34.248c9.463,20.278,7.661,303.252,9.009,336.592
			C729.849,586.056,718.589,705.47,708.228,729.796z"/>
		<path fill="#58AA50" d="M708.228,729.796c0,0-151.855-103.638-142.842-286.123c8.56-182.49,115.801-272.158,136.528-288.379
			c13.521-14.419,13.97-19.829,14.873-34.248c9.463,20.278,7.661,303.252,9.009,336.592
			C729.849,586.056,718.589,705.47,708.228,729.796z"/>
	</g>
</g>
</svg>
